<svg xmlns="http://www.w3.org/2000/svg" xmlns:xlink="http://www.w3.org/1999/xlink" width="80" zoomAndPan="magnify" viewBox="0 0 60 60" height="80" preserveAspectRatio="xMidYMid meet" version="1.0"><defs><clipPath id="aaa218976c"><path d="M 30 17 L 56 17 L 56 55.386719 L 30 55.386719 Z M 30 17 " clip-rule="nonzero"/></clipPath><clipPath id="b26c9540e5"><path d="M 3.25 13 L 12 13 L 12 23 L 3.25 23 Z M 3.25 13 " clip-rule="nonzero"/></clipPath></defs><g clip-path="url(#aaa218976c)"><path fill="#ffffff" d="M 39.132812 42.277344 C 39.132812 45.304688 39.167969 48.085938 39.121094 50.867188 C 39.082031 53.289062 37.675781 54.949219 35.515625 55.261719 C 33.4375 55.566406 31.605469 54.484375 30.921875 52.453125 C 30.714844 51.855469 30.6875 51.175781 30.683594 50.535156 C 30.667969 43.820312 30.664062 37.109375 30.675781 30.394531 C 30.6875 23.058594 36.878906 17.238281 44.082031 17.78125 C 51.441406 18.339844 56.738281 25.011719 55.617188 32.316406 C 54.519531 39.441406 47.421875 44.160156 40.277344 42.515625 C 39.992188 42.453125 39.710938 42.398438 39.132812 42.277344 Z M 39.144531 30.371094 C 39.175781 32.664062 40.960938 34.453125 43.222656 34.449219 C 45.40625 34.449219 47.316406 32.539062 47.332031 30.34375 C 47.351562 28.042969 45.429688 26.160156 43.117188 26.21875 C 40.816406 26.269531 39.117188 28.050781 39.144531 30.371094 Z M 39.144531 30.371094 " fill-opacity="1" fill-rule="nonzero"/></g><path fill="#ffffff" d="M 22.382812 13.433594 C 24.191406 13.53125 25.734375 13.5 27.246094 13.71875 C 29.144531 13.996094 30.40625 15.347656 30.664062 17.089844 C 30.9375 18.9375 30.136719 20.78125 28.441406 21.539062 C 27.570312 21.925781 26.5 21.894531 25.511719 21.964844 C 24.574219 22.027344 23.628906 21.976562 22.617188 21.976562 C 22.617188 25.28125 22.304688 28.492188 22.769531 31.585938 C 22.960938 32.84375 24.84375 33.84375 26.425781 35.425781 C 26.425781 37.242188 26.425781 39.890625 26.425781 42.738281 C 22.757812 42.875 19.871094 41.378906 17.429688 38.898438 C 15.019531 36.449219 14 33.375 13.96875 30.003906 C 13.910156 23.363281 13.921875 16.71875 13.96875 10.074219 C 13.992188 6.535156 16.707031 4.433594 19.695312 5.566406 C 21.433594 6.226562 22.316406 7.542969 22.378906 9.382812 C 22.417969 10.679688 22.382812 11.972656 22.382812 13.433594 Z M 22.382812 13.433594 " fill-opacity="1" fill-rule="nonzero"/><g clip-path="url(#b26c9540e5)"><path fill="#ffffff" d="M 11.9375 17.8125 C 11.933594 20.285156 9.941406 22.277344 7.523438 22.21875 C 5.210938 22.167969 3.300781 20.179688 3.273438 17.804688 C 3.25 15.371094 5.234375 13.417969 7.714844 13.441406 C 10.089844 13.460938 11.9375 15.371094 11.9375 17.8125 Z M 11.9375 17.8125 " fill-opacity="1" fill-rule="nonzero"/></g></svg>