<svg xmlns="http://www.w3.org/2000/svg" xmlns:xlink="http://www.w3.org/1999/xlink" width="250" zoomAndPan="magnify" viewBox="0 0 187.5 74.999997" height="100" preserveAspectRatio="xMidYMid meet" version="1.0"><defs><clipPath id="9d7724d3fc"><path d="M 0 0.101562 L 187 0.101562 L 187 74.898438 L 0 74.898438 Z M 0 0.101562 " clip-rule="nonzero"/></clipPath><clipPath id="77d6435ea9"><path d="M 94 19 L 132 19 L 132 74.898438 L 94 74.898438 Z M 94 19 " clip-rule="nonzero"/></clipPath><clipPath id="d6cbd607d5"><path d="M 54.441406 13 L 68 13 L 68 27 L 54.441406 27 Z M 54.441406 13 " clip-rule="nonzero"/></clipPath></defs><g clip-path="url(#9d7724d3fc)"><path fill="#ffffff" d="M 0 0.101562 L 187 0.101562 L 187 74.898438 L 0 74.898438 Z M 0 0.101562 " fill-opacity="1" fill-rule="nonzero"/><path fill="#ffffff" d="M 0 0.101562 L 187 0.101562 L 187 74.898438 L 0 74.898438 Z M 0 0.101562 " fill-opacity="1" fill-rule="nonzero"/></g><g clip-path="url(#77d6435ea9)"><path fill="#000000" d="M 106.839844 55.429688 C 106.839844 59.851562 106.890625 63.914062 106.820312 67.972656 C 106.765625 71.507812 104.710938 73.933594 101.558594 74.390625 C 98.519531 74.835938 95.847656 73.253906 94.84375 70.289062 C 94.546875 69.414062 94.503906 68.425781 94.5 67.492188 C 94.476562 57.6875 94.476562 47.882812 94.488281 38.078125 C 94.503906 27.363281 103.546875 18.867188 114.0625 19.660156 C 124.816406 20.472656 132.550781 30.21875 130.910156 40.882812 C 129.308594 51.285156 118.941406 58.179688 108.511719 55.777344 C 108.097656 55.6875 107.679688 55.609375 106.839844 55.429688 Z M 106.859375 38.042969 C 106.898438 41.390625 109.507812 44.003906 112.808594 44 C 116 43.996094 118.789062 41.210938 118.8125 38.003906 C 118.839844 34.644531 116.03125 31.894531 112.652344 31.976562 C 109.300781 32.054688 106.816406 34.65625 106.859375 38.042969 Z M 106.859375 38.042969 " fill-opacity="1" fill-rule="nonzero"/></g><path fill="#000000" d="M 82.378906 13.3125 C 85.015625 13.449219 87.273438 13.40625 89.476562 13.726562 C 92.253906 14.132812 94.09375 16.105469 94.472656 18.648438 C 94.871094 21.347656 93.699219 24.039062 91.222656 25.144531 C 89.957031 25.714844 88.390625 25.664062 86.945312 25.765625 C 85.578125 25.859375 84.199219 25.785156 82.722656 25.785156 C 82.722656 30.613281 82.261719 35.300781 82.945312 39.820312 C 83.21875 41.652344 85.976562 43.117188 88.28125 45.425781 C 88.28125 48.078125 88.28125 51.949219 88.28125 56.105469 C 82.925781 56.304688 78.710938 54.117188 75.148438 50.496094 C 71.628906 46.917969 70.136719 42.429688 70.09375 37.511719 C 70.007812 27.808594 70.023438 18.105469 70.089844 8.40625 C 70.125 3.234375 74.09375 0.167969 78.453125 1.820312 C 80.992188 2.785156 82.28125 4.707031 82.371094 7.394531 C 82.429688 9.285156 82.378906 11.179688 82.378906 13.3125 Z M 82.378906 13.3125 " fill-opacity="1" fill-rule="nonzero"/><g clip-path="url(#d6cbd607d5)"><path fill="#000000" d="M 67.125 19.703125 C 67.121094 23.316406 64.210938 26.222656 60.679688 26.140625 C 57.304688 26.066406 54.511719 23.160156 54.472656 19.691406 C 54.4375 16.140625 57.339844 13.289062 60.960938 13.320312 C 64.429688 13.347656 67.128906 16.140625 67.125 19.703125 Z M 67.125 19.703125 " fill-opacity="1" fill-rule="nonzero"/></g></svg>